{"title":"Same Kind of Different as Me (2017) Eng Subs HDRip H264 MPEG-4 A","magnet":"magnet:?xt=urn:btih:c1c742a765481769e51a12c74a9ebe1e476ffb9b&dn=Same+Kind+of+Different+as+Me+%282017%29+Eng+Subs+HDRip+H264+MPEG-4+A&tr=udp%3A%2F%2Ftracker.leechers-paradise.org%3A6969&tr=udp%3A%2F%2Fzer0day.ch%3A1337&tr=udp%3A%2F%2Fopen.demonii.com%3A1337&tr=udp%3A%2F%2Ftracker.coppersurfer.tk%3A6969&tr=udp%3A%2F%2Fexodus.desync.com%3A6969","uploader":"spy1984","categoryP":"video","categoryS":"movies","size":"520018090","seeders":"1","leechers":"30","description":"Successful businessman Ron Hall and his wife, Deborah, discover a renewed sense of purpose when they begin to volunteer at a local mission in Fort Worth, Texas. Their lives change forever when they develop an unlikely friendship with Denver Moore, a homeless man who inspires them to save their struggling marriage.\r\n <a href=\"\nhttp://www.4kw.in/4639.html\" rel=\"nofollow\" target=\"_NEW\">\nhttp://www.4kw.in/4639.html</a>\r\n <a href=\"\nhttp://www.4kw.in/4640.html\" rel=\"nofollow\" target=\"_NEW\">\nhttp://www.4kw.in/4640.html</a>\r\n <a href=\"\nhttp://www.4kw.in/4641.html\" rel=\"nofollow\" target=\"_NEW\">\nhttp://www.4kw.in/4641.html</a>\r\n <a href=\"\nhttp://www.4kw.in/4642.html\" rel=\"nofollow\" target=\"_NEW\">\nhttp://www.4kw.in/4642.html</a>\r\n\r\n\r\n\r\nGeneral\r\n\r\n\r\nFormat                                   : MPEG-4\r\nFormat profile                           : Base Media\r\nCodec ID                                 : isom (isom/iso2/avc1/mp41)\r\nFile size                                : 496 MiB\r\nDuration                                 : 1 h 59 min\r\nOverall bit rate                         : 580 kb/s\r\nWriting application                      : Lavf57.83.100\r\n\r\nID                                       : 1\r\nFormat                                   : AVC\r\nFormat/Info                              : Advanced Video Codec\r\nFormat profile                           : <a href=\"/cdn-cgi/l/email-protection\" class=\"__cf_email__\" data-cfemail=\"ca82a3ada28a86f9e4fb\">[email&#xA0;protected]</a>\r\nFormat settings                          : CABAC / 5 Ref Frames\r\nFormat settings, CABAC                   : Yes\r\nFormat settings, RefFrames               : 5 frames\r\nCodec ID                                 : avc1\r\nCodec ID/Info                            : Advanced Video Coding\r\nDuration                                 : 1 h 59 min\r\nBit rate                                 : 512 kb/s\r\nWidth                                    : 720 pixels\r\nHeight                                   : 304 pixels\r\nDisplay aspect ratio                     : 2.35:1\r\nFrame rate mode                          : Constant\r\nFrame rate                               : 23.976 (24000/1001) FPS\r\nColor space                              : YUV\r\nChroma subsampling                       : 4:2:0\r\nBit depth                                : 8 bits\r\nScan type                                : Progressive\r\nBits/(Pixel*Frame)                       : 0.098\r\nStream size                              : 437 MiB (88%)\r\n\r\n\r\nAudio\r\n\r\n\r\nID                                       : 2\r\nFormat                                   : AAC\r\nFormat/Info                              : Advanced Audio Codec\r\nFormat profile                           : LC\r\nCodec ID                                 : mp4a-40-2\r\nDuration                                 : 1 h 59 min\r\nDuration_LastFrame                       : -11 ms\r\nBit rate mode                            : Constant\r\nBit rate                                 : 64.7 kb/s\r\nChannel(s)                               : 2 channels\r\nChannel positions                        : Front: L R\r\nSampling rate                            : 48.0 kHz\r\nFrame rate                               : 46.875 FPS (1024 SPF)\r\nCompression mode                         : Lossy\r\nStream size                              : 55.2 MiB (11%)\r\nDefault                                  : Yes\r\nAlternate group                          : 1","last_updated":"2018-01-06T12:03:04.531Z","parsed":{"xt":"urn:btih:c1c742a765481769e51a12c74a9ebe1e476ffb9b","dn":"Same Kind of Different as Me (2017) Eng Subs HDRip H264 MPEG-4 A","tr":["udp://exodus.desync.com:6969","udp://open.demonii.com:1337","udp://tracker.coppersurfer.tk:6969","udp://tracker.leechers-paradise.org:6969","udp://zer0day.ch:1337"],"infoHash":"c1c742a765481769e51a12c74a9ebe1e476ffb9b","infoHashBuffer":{"type":"Buffer","data":[193,199,66,167,101,72,23,105,229,26,18,199,74,158,190,30,71,111,251,155]},"name":"Same Kind of Different as Me (2017) Eng Subs HDRip H264 MPEG-4 A","announce":["udp://exodus.desync.com:6969","udp://open.demonii.com:1337","udp://tracker.coppersurfer.tk:6969","udp://tracker.leechers-paradise.org:6969","udp://zer0day.ch:1337"],"urlList":[]}}